Coordinates
version=1
nRows=13
nColumns=34
inDegrees=yes

Units are S.I. units (second, meters, Newtons, ...)
If the header above contains a line with 'inDegrees', this indicates whether rotational values are in degrees (yes) or radians (no).

endheader
time	pelvis_tilt	pelvis_list	pelvis_rotation	pelvis_tx	pelvis_ty	pelvis_tz	hip_flexion_r	hip_adduction_r	hip_rotation_r	knee_angle_r	ankle_angle_r	subtalar_angle_r	mtp_angle_r	hip_flexion_l	hip_adduction_l	hip_rotation_l	knee_angle_l	ankle_angle_l	subtalar_angle_l	mtp_angle_l	lumbar_extension	lumbar_bending	lumbar_rotation	arm_flex_r	arm_add_r	arm_rot_r	elbow_flex_r	pro_sup_r	arm_flex_l	arm_add_l	arm_rot_l	elbow_flex_l	pro_sup_l
      4.50000000	     -7.76832924	     -1.39679268	      1.00816519	      2.50411739	      0.88947251	     -0.14372212	      8.64794672	      5.54693212	      2.77710658	      7.55508059	      4.70184598	     -2.61960189	      0.00000000	     29.19180371	     -4.79860948	     -0.05007787	     52.05111930	      2.53497877	     -4.44108936	      0.00000000	     -5.48031946	      2.24705401	     -3.43337132	     21.92039857	    -10.26732642	      4.97243516	     67.10984271	     67.42104772	      9.86574600	    -13.24174739	     26.13212220	     68.67517257	     75.71267600
      4.51666670	     -7.44622769	     -1.26564932	      0.01572705	      2.51856725	      0.89381335	     -0.14146857	      6.68586042	      5.32124789	      3.84898607	      6.34066282	      4.27760469	     -1.68788931	      0.00000000	     30.69362666	     -4.74187653	     -0.68983634	     47.07989293	      3.11796703	     -2.68757096	      0.00000000	     -5.65783258	      1.90132543	     -2.19387376	     24.24403355	    -10.31552461	      6.69508057	     72.75807059	     69.33933104	     10.54930643	    -12.59505262	     25.61043558	     70.81615171	     77.34799122
      4.53333330	     -6.97636310	     -1.04905770	     -0.95267884	      2.53284369	      0.89607014	     -0.14046868	      4.60209208	      5.09778416	      5.17414554	      5.32452339	      4.13468779	     -1.69123600	      0.00000000	     31.35746060	     -4.26662240	     -1.51809080	     40.91088757	      2.98388051	     -0.38673100	      0.00000000	     -5.89274323	      1.52051663	     -2.16102553	     27.28711820	     -9.07924807	      9.03666463	     75.83872881	     80.44153594	      9.48295495	    -11.48226642	     21.63210651	     73.01297119	     87.76630561
      4.55000000	     -6.38700782	     -1.11351134	     -2.00723116	      2.54801842	      0.89640662	     -0.14110008	      2.54921748	      5.20223571	      6.36198748	      4.75471690	      4.53306080	     -1.75010905	      0.00000000	     31.47100213	     -3.84034589	     -2.46046636	     34.29137604	      2.63948908	      1.63303233	      0.00000000	     -6.13033477	      1.38191644	     -0.91727497	     29.34588344	     -8.93189618	     11.46734834	     79.68302838	     81.02907492	      9.63615775	    -10.07960517	     20.80266760	     73.67717582	     87.98633613
      4.56666670	     -5.59614281	     -1.63857699	     -2.90982087	      2.56494353	      0.89594665	     -0.14200604	      0.16085137	      5.74525099	      7.41657104	      4.22844870	      5.25517663	     -1.77297362	      0.00000000	     31.06353276	     -3.67947554	     -3.01414830	     27.51853421	      1.91172223	      3.52627045	      0.00000000	     -6.65890147	      1.91433003	     -0.00367316	     31.41085184	     -8.98358072	     13.67410294	     83.13635106	     81.89312326	      8.97074107	     -8.61850130	     18.78654276	     75.24190939	     88.40861319
      4.58333330	     -4.68218940	     -2.49164720	     -3.62572657	      2.58287807	      0.89421469	     -0.14264255	     -2.16373110	      6.55663717	      7.72476736	      4.51563084	      6.65648787	     -1.33770868	      0.00000000	     30.29936289	     -3.85840884	     -3.18182944	     20.95279588	      0.49818589	      4.76096493	      0.00000000	     -7.27791194	      2.97998504	      0.11562063	     33.63083604	     -8.62318121	     15.87579939	     85.35849709	     83.27875716	      7.50333347	     -7.49564335	     16.01168215	     77.67601886	     89.40745719
      4.60000000	     -3.76567165	     -3.38438478	     -4.29205728	      2.60076154	      0.89036052	     -0.14387667	     -4.22511778	      7.32074701	      7.72329889	      5.31835022	      8.32263820	     -0.36184106	      0.00000000	     29.41819677	     -4.28042953	     -2.94156912	     15.27383256	     -1.59507338	      4.99693533	      0.00000000	     -7.60454761	      4.08609914	      0.52470976	     35.54316146	     -8.36112813	     17.75884142	     86.60572749	     84.47564897	      6.55757365	     -6.61738149	     14.22943783	     79.37939990	     90.39866019
      4.61666670	     -2.87147393	     -4.14998404	     -4.89462111	      2.61780182	      0.88718139	     -0.14612417	     -6.08700841	      7.83843163	      7.52350563	      6.31041276	      9.83644089	      0.80254143	      0.00000000	     28.59176964	     -4.72186638	     -2.48039138	     10.91974734	     -4.26068735	      4.98195888	      0.00000000	     -7.81827100	      5.04345911	      1.17383128	     36.98478930	     -8.08296003	     19.26339340	     87.46307227	     85.26098230	      6.09901118	     -6.02286959	     13.34045568	     80.43343009	     91.03955514
      4.63333330	     -2.00058463	     -4.69702908	     -5.41053321	      2.63478934	      0.88518994	     -0.14804581	     -7.74664307	      8.02325532	      6.91394854	      7.42198090	     11.02467647	      2.26822722	      0.00000000	     27.87866684	     -4.93156080	     -1.83483795	      8.01660097	     -7.39439281	      4.86076818	      0.00000000	     -8.01603906	      5.79624850	      1.68058317	     38.00485907	     -7.68220251	     20.73196900	     88.02558827	     85.92825784	      5.70893074	     -5.73351275	     12.86775918	     81.00131055	     91.54128008
      4.65000000	     -1.14915821	     -4.86396005	     -5.95665217	      2.65222715	      0.88398076	     -0.14786406	     -9.25756835	      7.74713112	      6.23826554	      8.63884756	     11.88654999	      3.68614754	      0.00000000	     27.14239640	     -4.74398810	     -1.02351474	      6.38175502	    -10.61022986	      4.95462770	      0.00000000	     -8.23906028	      5.99731065	      2.30556755	     38.40151852	     -7.17373208	     21.94940782	     88.47021347	     86.36696880	      5.39432323	     -5.76338406	     12.80582878	     81.08188883	     91.78593926
      4.66666670	     -0.29495325	     -4.79543035	     -6.36709955	      2.66991175	      0.88107375	     -0.14674305	    -10.53709243	      7.18016843	      5.36613336	     10.26152852	     12.56221546	      5.26157786	      0.00000000	     26.52862339	     -4.18452847	     -0.10874110	      6.18682294	    -13.71383506	      5.29382141	      0.00000000	     -8.50831770	      5.79649386	      2.70786263	     38.38398261	     -6.68262817	     22.94003782	     89.04466051	     86.66827651	      5.05568481	     -6.15028050	     13.08019496	     80.98624522	     91.85587217
      4.68333330	      0.63709034	     -4.63002476	     -6.67487285	      2.68737113	      0.87641330	     -0.14705706	    -11.40580362	      6.35422314	      3.64615316	     12.84430183	     13.69643516	      7.68555948	      0.00000000	     25.87669004	     -3.35751427	      1.11828316	      7.21803384	    -16.00731134	      5.58268989	      0.00000000	     -8.94151031	      5.40029932	      3.17674380	     38.19804870	     -6.28538414	     23.81152387	     89.68773576	     86.95872138	      4.97793472	     -6.81435845	     13.80268640	     81.00463052	     91.73477720
      4.70000000	      1.49054853	     -4.30144380	     -6.95588260	      2.70502642	      0.87061743	     -0.15008859	    -11.49978445	      5.12650766	      1.47517729	     16.82655841	     15.09514753	     10.27872137	      0.00000000	     25.53222723	     -2.27428047	      1.70384983	      9.72439761	    -17.05292331	      5.87531650	      0.00000000	     -9.25857724	      4.70546962	      3.48502016	     37.67414033	     -6.08615674	     24.10165932	     90.31813889	     87.11205129	      4.86225247	     -7.45828031	     14.81047122	     80.80549620	     91.32466746
